HIERARCHY
ROOT RootJoint
{
    OFFSET   0.000000   0.000000   0.000000
    CHANNELS 6 Xposition Yposition Zposition Xrotation Yrotation Zrotation
    JOINT pelvis_lowerback
    {
        OFFSET   0.000000   0.093605   0.000000
        CHANNELS 3 Xrotation Yrotation Zrotation
        JOINT lowerback_torso
        {
            OFFSET   0.000000   0.100000   0.000000
            CHANNELS 3 Xrotation Yrotation Zrotation
            JOINT torso_head
            {
                OFFSET   0.000000   0.282350   0.000000
                CHANNELS 3 Xrotation Yrotation Zrotation
                End Site
                {
                    OFFSET   0.000000   0.192650   0.000000
                }
            }
            JOINT rTorso_Clavicle
            {
                OFFSET  -0.001000   0.157500   0.000000
                CHANNELS 3 Xrotation Yrotation Zrotation
                JOINT rShoulder
                {
                    OFFSET  -0.117647   0.000000   0.000000
                    CHANNELS 3 Xrotation Yrotation Zrotation
                    JOINT rElbow
                    {
                        OFFSET  -0.245000   0.000000   0.000000
                        CHANNELS 3 Xrotation Yrotation Zrotation
                        JOINT rWrist
                        {
                            OFFSET  -0.240000   0.000000   0.000000
                            CHANNELS 3 Xrotation Yrotation Zrotation
                            End Site
                            {
                                OFFSET  -0.116353  -0.002500   0.000000
                            }
                        }
                    }
                }
            }
            JOINT lTorso_Clavicle
            {
                OFFSET   0.001000   0.157500   0.000000
                CHANNELS 3 Xrotation Yrotation Zrotation
                JOINT lShoulder
                {
                    OFFSET   0.117647   0.000000   0.000000
                    CHANNELS 3 Xrotation Yrotation Zrotation
                    JOINT lElbow
                    {
                        OFFSET   0.245000   0.000000   0.000000
                        CHANNELS 3 Xrotation Yrotation Zrotation
                        JOINT lWrist
                        {
                            OFFSET   0.240000   0.000000   0.000000
                            CHANNELS 3 Xrotation Yrotation Zrotation
                            End Site
                            {
                                OFFSET   0.116353  -0.002500   0.000000
                            }
                        }
                    }
                }
            }
        }
    }
    JOINT rHip
    {
        OFFSET  -0.100000  -0.051395   0.000000
        CHANNELS 3 Xrotation Yrotation Zrotation
        JOINT rKnee
        {
            OFFSET   0.000000  -0.410000   0.000000
            CHANNELS 3 Xrotation Yrotation Zrotation
            JOINT rAnkle
            {
                OFFSET   0.000000  -0.390000   0.000000
                CHANNELS 3 Xrotation Yrotation Zrotation
                JOINT rToeJoint
                {
                    OFFSET   0.000000  -0.050000   0.130000
                    CHANNELS 3 Xrotation Yrotation Zrotation
                    End Site
                    {
                        OFFSET  -0.010000   0.002000   0.060000
                    }
                }
            }
        }
    }
    JOINT lHip
    {
        OFFSET   0.100000  -0.051395   0.000000
        CHANNELS 3 Xrotation Yrotation Zrotation
        JOINT lKnee
        {
            OFFSET   0.000000  -0.410000   0.000000
            CHANNELS 3 Xrotation Yrotation Zrotation
            JOINT lAnkle
            {
                OFFSET   0.000000  -0.390000   0.000000
                CHANNELS 3 Xrotation Yrotation Zrotation
                JOINT lToeJoint
                {
                    OFFSET   0.000000  -0.050000   0.130000
                    CHANNELS 3 Xrotation Yrotation Zrotation
                    End Site
                    {
                        OFFSET   0.010000   0.002000   0.060000
                    }
                }
            }
        }
    }
}
MOTION
Frames: 14
Frame Time:   0.008333
 -2.376719   0.925631   3.975860   0.000000   0.000000   0.000000   0.000000   0.000000   0.000000   0.000000   0.000000   0.000000   0.000000   0.000000   0.000000   0.000000   0.000000   0.000000   0.000000   0.000000   0.000000   0.000000   0.000000   0.000000   0.000000   0.000000   0.000000   0.000000   0.000000   0.000000   0.000000   0.000000   0.000000   0.000000   0.000000   0.000000   0.000000   0.000000   0.000000   0.000000   0.000000   0.000000   0.000000   0.000000   0.000000   0.000000   0.000000   0.000000   0.000000   0.000000   0.000000   0.000000   0.000000   0.000000   0.000000   0.000000   0.000000   0.000000   0.000000   0.000000   0.000000   0.000000   0.000000
 -2.376604   0.926092   3.974623  -0.019048  -0.058057   0.033125   0.259267   0.103236  -0.002873   0.087776  -0.122197  -0.031361  -0.286434   0.144754  -0.020565   0.233725  -0.258752   0.129573   1.015713   0.263903   2.150353   0.019711   0.982783  -0.013682   0.368893  -0.487754  -2.415563   0.216015   0.231661  -0.316375   1.245540  -0.016676  -2.021882   0.017014  -0.828398   0.013041   0.356843   0.250264   2.601735  -0.807356   0.044380  -0.112426   2.194363   0.001527  -0.000311  -1.559827  -0.359968  -0.133146  -0.055623  -0.000103   0.000181  -0.786769  -0.014888   0.032981   2.112752  -0.001238  -0.001322  -1.457928   0.191783   0.115389   0.312572  -0.000490   0.000324
 -2.376503   0.926854   3.973344  -0.147296  -0.143064   0.076725   0.587207   0.211402  -0.012115   0.288007  -0.230715  -0.076954  -0.533733   0.282918  -0.037690   0.465196  -0.434725   0.918851   2.001145   0.633033   4.828552   0.045531   1.946169  -0.024737   0.780065  -0.667464  -4.130634   0.435632   0.397247  -1.315864   2.466168  -0.126537  -4.601131   0.039266  -1.632600   0.023498   0.765311   0.279913   4.506009  -1.525932   0.082979  -0.292911   4.485372   0.003931  -0.001469  -3.009639  -0.698262  -0.267829  -0.139972  -0.000285   0.000431  -1.497400  -0.028926   0.125492   4.318949  -0.003738  -0.002762  -2.811554   0.371143   0.228721   0.575087  -0.000959   0.000451
 -2.376459   0.927527   3.972124  -0.286897  -0.242838   0.126076   0.914874   0.318594  -0.035830   0.508178  -0.324875  -0.142747  -0.755277   0.411710  -0.047927   0.681761  -0.535757   2.122772   2.946191   1.093735   7.850531   0.071022   2.862638  -0.032603   1.185096  -0.697670  -5.088655   0.642302   0.496464  -2.768048   3.607697  -0.325418  -7.427449   0.060948  -2.397233   0.030754   1.169828   0.192835   5.567931  -2.182819   0.119648  -0.520536   6.657610   0.006404  -0.002972  -4.361460  -1.011948  -0.402122  -0.215972  -0.000439   0.000600  -2.161666  -0.042905   0.274668   6.408163  -0.006838  -0.003784  -4.073258   0.536900   0.339000   0.816762  -0.001416   0.000492
 -2.376498   0.927836   3.971006  -0.413960  -0.349469   0.178665   1.230579   0.423108  -0.078707   0.720521  -0.407599  -0.230745  -0.960307   0.531744  -0.053913   0.881700  -0.581875   3.568035   3.848892   1.637810  11.103138   0.093205   3.730055  -0.037831   1.580378  -0.635089  -5.488988   0.832632   0.546067  -4.490164   4.658219  -0.599819 -10.330569   0.079409  -3.122461   0.035348   1.565805   0.021747   5.994901  -2.792061   0.156004  -0.781005   8.688558   0.008585  -0.004509  -5.624611  -1.302411  -0.534971  -0.292363  -0.000583   0.000731  -2.793025  -0.058062   0.474002   8.357727  -0.010043  -0.004266  -5.251912   0.690083   0.445840   1.031405  -0.001804   0.000491
 -2.376591   0.927565   3.970019  -0.523997  -0.457163   0.230159   1.530393   0.524397  -0.135118   0.918076  -0.480510  -0.326609  -1.150995   0.643622  -0.062196   1.065284  -0.589983   5.176558   4.671350   2.232783  14.387739   0.110416   4.549349  -0.040704   1.965109  -0.502834  -5.450611   1.005105   0.562478  -6.355342   5.620078  -0.933557 -13.221707   0.093582  -3.808375   0.037856   1.950562  -0.209375   5.988785  -3.357401   0.192753  -1.064818  10.584384   0.010398  -0.005906  -6.805218  -1.571145  -0.665446  -0.369089  -0.000714   0.000827  -3.394066  -0.075607   0.714819  10.173564  -0.012970  -0.004257  -6.353333   0.831654   0.548984   1.221076  -0.002098   0.000471
 -2.376706   0.926558   3.969179  -0.617561  -0.562831   0.278517   1.812117   0.621911  -0.197667   1.099369  -0.545319  -0.421495  -1.327969   0.748027  -0.073113   1.233421  -0.576803   6.870895   5.401962   2.850640  17.587628   0.122188   5.320614  -0.041650   2.336099  -0.323964  -5.104601   1.160358   0.560813  -8.276423   6.497388  -1.309052 -16.044334   0.103269  -4.454778   0.038745   2.321161  -0.478582   5.698862  -3.880521   0.230368  -1.366357  12.355165   0.011846  -0.007093  -7.908555  -1.819695  -0.792850  -0.444680  -0.000827   0.000888  -3.964683  -0.096169   0.986885  11.865533  -0.015397  -0.003877  -7.382473   0.962429   0.648198   1.389404  -0.002296   0.000445
 -2.376865   0.924159   3.967799  -0.557135  -0.697528   0.307806   2.111055   0.722475  -0.250887   1.188815  -0.586504  -0.507727  -1.656273   0.724699  -0.164581   1.557063  -0.397378   7.990188   6.211254   3.504396  20.619236   0.127344   6.097299  -0.044999   2.667534  -0.058446  -3.943367   1.327418   0.533146  -9.463879   7.211832  -1.713749 -18.894077   0.109800  -5.170780   0.039965   2.611313  -0.828205   4.521043  -4.713084   0.090971  -1.609957  14.330939   0.011878  -0.011928  -8.981384  -2.284737  -0.815244  -0.433290  -0.000638   0.000634  -4.722307  -0.053150   1.255614  13.336971  -0.016242  -0.002923  -8.451357   1.129274   0.816454   1.539270  -0.002429   0.000526
 -2.377041   0.920598   3.966299  -0.488609  -0.812555   0.330295   2.443126   0.815792  -0.304110   1.287285  -0.620212  -0.588428  -1.970288   0.697669  -0.258619   1.840404  -0.186575   8.855998   6.928172   4.171046  23.322308   0.126352   6.832170  -0.046752   2.996686   0.259003  -2.885138   1.468523   0.481006 -10.376425   7.854884  -2.130772 -21.422396   0.110166  -5.847432   0.040140   2.887054  -1.229476   3.438939  -5.525755  -0.051667  -1.813854  16.187277   0.010951  -0.015124  -9.981008  -2.722130  -0.845427  -0.412959  -0.000474   0.000377  -5.484799  -0.015470   1.501143  14.658721  -0.016108  -0.001963  -9.453014   1.282416   0.976791   1.666434  -0.002398   0.000573
 -2.377214   0.915994   3.964803  -0.420418  -0.908212   0.349367   2.785534   0.905983  -0.356681   1.398015  -0.647904  -0.663434  -2.257536   0.672626  -0.348463   2.088874   0.026370   9.540667   7.563541   4.826366  25.750915   0.121489   7.522312  -0.047041   3.310831   0.585814  -2.042094   1.589880   0.422388 -11.097555   8.435860  -2.542594 -23.683911   0.106588  -6.480528   0.039316   3.147314  -1.625901   2.580300  -6.290638  -0.184218  -1.986291  17.913722   0.009559  -0.016769 -10.914705  -3.129349  -0.881256  -0.392763  -0.000347   0.000182  -6.234545   0.016617   1.719164  15.867693  -0.015355  -0.001086 -10.389327   1.422162   1.128811   1.782397  -0.002290   0.000600
 -2.377378   0.910429   3.963370  -0.354099  -0.987541   0.366049   3.126368   0.994265  -0.407192   1.516002  -0.669735  -0.732795  -2.520493   0.649776  -0.433225   2.311448   0.227615  10.090318   8.130274   5.456303  27.949083   0.114311   8.166605  -0.046146   3.608543   0.897418  -1.377697   1.698706   0.369889 -11.677706   8.964153  -2.937627 -25.724468   0.100628  -7.069482   0.037684   3.391570  -1.994068   1.906210  -7.003271  -0.307053  -2.131980  19.520933   0.007997  -0.017293 -11.786971  -3.508280  -0.921317  -0.373707  -0.000252   0.000043  -6.962667   0.044380   1.909574  16.980596  -0.014221  -0.000344 -11.264112   1.549746   1.272661   1.889007  -0.002136   0.000611
 -2.377612   0.908693   3.962159  -0.520280  -0.843155   0.500491   3.659059   0.998784  -0.560027   1.736170  -0.749269  -0.835825  -2.764424   0.625952  -0.517065   2.507725   0.440739  10.839811   8.626305   6.076760  30.057793   0.107639   8.758648  -0.044861   3.887025   1.118912  -0.891987   1.763284   0.258033 -12.406032   9.421732  -3.361789 -27.645449   0.095194  -7.619172   0.035667   3.621288  -2.293981   1.451887  -7.742148  -0.251328  -2.267966  21.287113   0.006349  -0.011807 -12.677509  -3.655988  -0.871673  -0.357538  -0.000210   0.000034  -7.834932   0.143879   1.819018  18.827152  -0.011054   0.004458 -11.646011   1.701086   1.325835   2.069511  -0.001848   0.001143
 -2.377885   0.907153   3.961536  -0.648647  -0.742237   0.652842   4.046837   1.047177  -0.705310   1.940546  -0.799703  -0.947061  -2.968083   0.606322  -0.601007   2.710719   0.602997  11.429648   9.081779   6.655671  32.029100   0.099901   9.315382  -0.042595   4.154490   1.369445  -0.285408   1.848079   0.203154 -12.987242   9.851889  -3.746127 -29.447110   0.088622  -8.133944   0.032812   3.841284  -2.620765   0.887685  -8.337579  -0.291226  -2.437596  22.742193   0.004833  -0.009475 -13.448360  -3.954505  -0.933825  -0.318999  -0.000147  -0.000070  -8.488442   0.215061   1.699230  20.301903  -0.008525   0.006144 -12.228882   1.813392   1.432899   2.202900  -0.001620   0.001261
 -2.378325   0.905935   3.960745  -0.570567  -0.636008   0.711425   4.416032   1.102578  -0.830775   1.929496  -0.823731  -0.955733  -3.198728   0.559897  -0.704728   2.862065   0.644547  11.706823   9.445772   7.142941  33.583631   0.090610   9.895937  -0.039797   4.338250   1.752918   0.803005   1.947272   0.234235 -13.191691  10.175151  -4.107707 -31.000190   0.082413  -8.756748   0.030234   4.015577  -2.977682  -0.179203  -8.948254  -0.364266  -2.493044  23.748420   0.003542  -0.007593 -13.957693  -4.237355  -1.022498  -0.283927  -0.000098  -0.000142  -9.228253   0.252008   1.682299  21.490407  -0.006656   0.006750 -12.725960   1.895653   1.590851   2.287660  -0.001428   0.001194
